<?xml version='1.0' encoding='utf-8'?>
<svg xmlns="http://www.w3.org/2000/svg" version="1.1" id="Frame_0" width="1280px" height="720px"> <g id="Layer_6"> <g id="Layer_1"> <path fill="#239e46" fill-rule="evenodd" stroke="#239e46" stroke-width="4" stroke-linecap="round" stroke-linejoin="round" d="M 1409.401 -131.159 C 1409.233 -131.159 -271.831 -131.159 -271.999 -131.159 C -271.999 -131.049 -271.999 974.584 -271.999 974.694 C -271.831 974.694 1409.233 974.694 1409.401 974.694 C 1409.401 974.584 1409.401 -131.049 1409.401 -131.159 Z"/> </g> <g id="Layer_4"> <path fill="#fb82ab" fill-rule="evenodd" stroke="#fb82ab" stroke-width="1" stroke-linecap="round" stroke-linejoin="round" d="M 657.615 641.951 C 657.646 641.936 970.770 486.231 970.801 486.216 C 970.801 486.217 970.068 499.171 970.068 499.172 C 970.037 499.188 657.646 655.258 657.615 655.274 C 657.615 655.273 657.615 641.953 657.615 641.951 Z"/> </g> <g id="Layer_5"> <path fill="#f75392" fill-rule="evenodd" stroke="#f75392" stroke-width="1" stroke-linecap="round" stroke-linejoin="round" d="M 660.732 604.269 C 660.761 604.255 945.074 463.053 945.102 463.039 C 945.105 463.041 971.231 486.127 971.234 486.130 C 971.203 486.145 663.626 639.562 663.595 639.577 C 663.594 639.574 660.732 604.273 660.732 604.269 Z"/> <path fill="#fd83ac" fill-rule="evenodd" stroke="#fd83ac" stroke-width="1" stroke-linecap="round" stroke-linejoin="round" d="M 665.663 554.961 C 665.662 554.961 657.814 558.944 657.813 558.944 C 657.813 558.954 657.699 655.403 657.699 655.412 C 657.700 655.412 665.123 651.654 665.124 651.654 C 665.124 651.644 665.663 554.970 665.663 554.961 Z"/> <path fill="#fd83ac" fill-rule="evenodd" stroke="#fd83ac" stroke-width="1" stroke-linecap="round" stroke-linejoin="round" d="M 970.730 403.071 C 970.699 403.086 663.447 556.084 663.416 556.099 C 663.416 556.100 662.578 569.514 662.578 569.515 C 662.609 569.500 970.279 416.083 970.310 416.068 C 970.310 416.067 970.729 403.072 970.730 403.071 Z"/> <path fill="#424a5f" fill-rule="evenodd" stroke="#424a5f" stroke-width="1" stroke-linecap="round" stroke-linejoin="round" d="M 738.283 552.828 C 738.290 552.831 806.626 586.820 806.633 586.824 C 806.629 586.824 777.696 588.122 765.444 589.984 C 762.990 590.357 759.190 590.026 757.347 591.689 C 756.586 592.375 756.382 593.877 756.025 594.837 C 753.806 600.801 749.735 615.092 749.735 615.094 C 749.728 615.091 682.465 581.102 682.459 581.098 C 682.464 581.095 738.278 552.831 738.283 552.828 Z"/> </g> <g id="Layer_3"> <path fill="#ffffff" fill-rule="evenodd" stroke="#ffffff" stroke-width="1" stroke-linecap="round" stroke-linejoin="round" d="M 665.802 566.826 C 665.831 566.812 955.352 424.348 955.381 424.333 C 955.381 424.335 958.286 436.959 958.796 442.472 C 959.035 445.068 959.184 448.571 958.889 451.161 C 958.595 453.745 957.550 457.082 956.853 459.587 C 954.913 466.558 949.431 482.532 949.430 482.535 C 949.402 482.549 665.830 623.579 665.802 623.593 C 665.802 623.587 665.802 566.832 665.802 566.826 Z"/> <path fill="#f75392" fill-rule="evenodd" stroke="#f75392" stroke-width="1" stroke-linecap="round" stroke-linejoin="round" d="M 597.470 207.903 C 597.507 207.922 970.951 403.176 970.988 403.195 C 970.957 403.211 659.371 560.249 659.340 560.265 C 659.301 560.245 269.693 364.233 269.654 364.213 C 269.686 364.197 597.437 207.919 597.470 207.903 Z"/> <path fill="#d71d5c" fill-rule="evenodd" stroke="#d71d5c" stroke-width="1" stroke-linecap="round" stroke-linejoin="round" d="M 269.917 363.910 C 269.956 363.930 658.367 559.066 658.406 559.085 C 658.406 559.095 656.835 656.284 656.834 656.294 C 656.796 656.274 269.090 459.434 269.052 459.414 C 269.052 459.405 269.917 363.920 269.917 363.910 Z"/> </g> </g> <g id="Layer_2"> <g id="Layer_4"> <path fill="#28afe9" fill-rule="evenodd" stroke="#28afe9" stroke-width="1" stroke-linecap="round" stroke-linejoin="round" d="M 653.808 510.848 C 653.833 510.836 899.342 388.753 899.367 388.741 C 899.367 388.742 898.792 398.899 898.792 398.900 C 898.768 398.912 653.833 521.282 653.808 521.294 C 653.808 521.293 653.808 510.849 653.808 510.848 Z"/> </g> <g id="Layer_5"> <path fill="#48bdff" fill-rule="evenodd" stroke="#48bdff" stroke-width="1" stroke-linecap="round" stroke-linejoin="round" d="M 656.252 481.303 C 656.275 481.292 879.195 370.580 879.217 370.569 C 879.219 370.571 899.704 388.672 899.706 388.674 C 899.682 388.686 658.521 508.975 658.497 508.987 C 658.497 508.984 656.253 481.306 656.252 481.303 Z"/> <path fill="#28afe9" fill-rule="evenodd" stroke="#28afe9" stroke-width="1" stroke-linecap="round" stroke-linejoin="round" d="M 660.118 442.642 C 660.118 442.642 653.964 445.765 653.964 445.765 C 653.964 445.773 653.874 521.395 653.874 521.403 C 653.875 521.402 659.695 518.456 659.696 518.456 C 659.696 518.448 660.118 442.649 660.118 442.642 Z"/> <path fill="#28afe9" fill-rule="evenodd" stroke="#28afe9" stroke-width="1" stroke-linecap="round" stroke-linejoin="round" d="M 899.311 323.550 C 899.287 323.562 658.381 443.522 658.357 443.534 C 658.357 443.535 657.700 454.052 657.700 454.053 C 657.724 454.041 898.958 333.753 898.982 333.741 C 898.982 333.740 899.311 323.551 899.311 323.550 Z"/> <path fill="#424a5f" fill-rule="evenodd" stroke="#424a5f" stroke-width="1" stroke-linecap="round" stroke-linejoin="round" d="M 717.058 440.970 C 717.063 440.972 770.643 467.622 770.648 467.625 C 770.645 467.625 747.960 468.643 738.353 470.102 C 736.429 470.395 733.450 470.135 732.005 471.439 C 731.409 471.977 731.249 473.155 730.968 473.907 C 729.228 478.583 726.037 489.789 726.036 489.791 C 726.031 489.788 673.293 463.138 673.287 463.136 C 673.292 463.133 717.053 440.972 717.058 440.970 Z"/> </g> <g id="Layer_3"> <path fill="#ffffff" fill-rule="evenodd" stroke="#ffffff" stroke-width="1" stroke-linecap="round" stroke-linejoin="round" d="M 660.227 451.945 C 660.250 451.934 887.254 340.233 887.277 340.221 C 887.277 340.223 889.555 350.120 889.954 354.444 C 890.142 356.479 890.258 359.225 890.027 361.256 C 889.797 363.282 888.977 365.898 888.431 367.863 C 886.910 373.328 882.612 385.853 882.611 385.855 C 882.589 385.866 660.249 496.443 660.227 496.454 C 660.227 496.449 660.227 451.950 660.227 451.945 Z"/> <path fill="#48bdff" fill-rule="evenodd" stroke="#48bdff" stroke-width="1" stroke-linecap="round" stroke-linejoin="round" d="M 606.651 170.526 C 606.680 170.541 899.484 323.632 899.514 323.648 C 899.489 323.660 655.185 446.788 655.161 446.801 C 655.130 446.785 349.652 293.099 349.621 293.083 C 349.647 293.071 606.625 170.538 606.651 170.526 Z"/> <path fill="#2a95f5" fill-rule="evenodd" stroke="#2a95f5" stroke-width="1" stroke-linecap="round" stroke-linejoin="round" d="M 349.827 292.846 C 349.858 292.861 654.398 445.860 654.428 445.876 C 654.428 445.883 653.196 522.086 653.196 522.094 C 653.166 522.078 349.180 367.743 349.149 367.727 C 349.149 367.720 349.827 292.853 349.827 292.846 Z"/> </g> </g> <g id="Layer_3"> <g id="Layer_4"> <path fill="#ffff00" fill-rule="evenodd" stroke="#ffff00" stroke-width="1" stroke-linecap="round" stroke-linejoin="round" d="M 644.797 391.163 C 644.814 391.154 820.331 303.877 820.348 303.868 C 820.348 303.869 819.937 311.130 819.937 311.130 C 819.920 311.139 644.814 398.622 644.797 398.631 C 644.797 398.630 644.797 391.164 644.797 391.163 Z"/> </g> <g id="Layer_5"> <path fill="#feff91" fill-rule="evenodd" stroke="#feff91" stroke-width="1" stroke-linecap="round" stroke-linejoin="round" d="M 646.544 370.041 C 646.560 370.033 805.927 290.884 805.943 290.876 C 805.945 290.878 820.589 303.818 820.591 303.820 C 820.573 303.828 648.166 389.823 648.149 389.832 C 648.149 389.830 646.544 370.043 646.544 370.041 Z"/> <path fill="#ffff00" fill-rule="evenodd" stroke="#ffff00" stroke-width="1" stroke-linecap="round" stroke-linejoin="round" d="M 649.308 342.402 C 649.307 342.402 644.908 344.634 644.908 344.635 C 644.908 344.640 644.844 398.703 644.844 398.708 C 644.844 398.708 649.005 396.602 649.006 396.602 C 649.006 396.596 649.308 342.407 649.308 342.402 Z"/> <path fill="#ffff00" fill-rule="evenodd" stroke="#ffff00" stroke-width="1" stroke-linecap="round" stroke-linejoin="round" d="M 820.308 257.263 C 820.291 257.271 648.066 343.031 648.049 343.040 C 648.049 343.040 647.579 350.559 647.579 350.560 C 647.596 350.551 820.056 264.556 820.073 264.548 C 820.073 264.547 820.308 257.263 820.308 257.263 Z"/> <path fill="#424a5f" fill-rule="evenodd" stroke="#424a5f" stroke-width="1" stroke-linecap="round" stroke-linejoin="round" d="M 690.014 341.206 C 690.018 341.208 728.323 360.260 728.326 360.262 C 728.324 360.262 712.107 360.990 705.239 362.033 C 703.863 362.242 701.733 362.057 700.700 362.989 C 700.274 363.373 700.159 364.215 699.959 364.754 C 698.715 368.097 696.433 376.107 696.433 376.109 C 696.429 376.107 658.726 357.055 658.722 357.053 C 658.726 357.051 690.011 341.208 690.014 341.206 Z"/> </g> <g id="Layer_3"> <path fill="#ffffff" fill-rule="evenodd" stroke="#ffffff" stroke-width="1" stroke-linecap="round" stroke-linejoin="round" d="M 649.386 349.053 C 649.402 349.045 811.688 269.189 811.705 269.181 C 811.705 269.182 813.333 276.258 813.619 279.348 C 813.753 280.803 813.836 282.767 813.671 284.219 C 813.507 285.667 812.921 287.537 812.530 288.942 C 811.443 292.849 808.370 301.803 808.369 301.805 C 808.353 301.812 649.402 380.864 649.386 380.872 C 649.386 380.869 649.386 349.056 649.386 349.053 Z"/> <path fill="#feff91" fill-rule="evenodd" stroke="#feff91" stroke-width="1" stroke-linecap="round" stroke-linejoin="round" d="M 611.084 147.864 C 611.104 147.875 820.432 257.321 820.453 257.332 C 820.436 257.341 645.781 345.366 645.764 345.375 C 645.742 345.364 427.353 235.492 427.331 235.481 C 427.350 235.473 611.065 147.873 611.084 147.864 Z"/> <path fill="#c0c200" fill-rule="evenodd" stroke="#c0c200" stroke-width="1" stroke-linecap="round" stroke-linejoin="round" d="M 427.479 235.312 C 427.501 235.323 645.218 344.703 645.240 344.714 C 645.240 344.719 644.359 399.197 644.359 399.202 C 644.338 399.191 427.016 288.856 426.994 288.845 C 426.994 288.839 427.479 235.317 427.479 235.312 Z"/> </g> </g> </svg>